<?xml version="1.0" encoding="UTF-8" standalone="no"?>
<svg
   xmlns:dc="http://purl.org/dc/elements/1.1/"
   xmlns:cc="http://creativecommons.org/ns#"
   xmlns:rdf="http://www.w3.org/1999/02/22-rdf-syntax-ns#"
   xmlns:svg="http://www.w3.org/2000/svg"
   xmlns="http://www.w3.org/2000/svg"
   xmlns:sodipodi="http://sodipodi.sourceforge.net/DTD/sodipodi-0.dtd"
   xmlns:inkscape="http://www.inkscape.org/namespaces/inkscape"
   fill="#000000"
   height="48"
   viewBox="0 0 24 24"
   width="48"
   id="svg2"
   version="1.1"
   inkscape:version="0.91 r13725"
   sodipodi:docname="icon_luggage.svg"
   inkscape:export-filename="/home/nessa/Proyectos/icon-translator-app/Resources/xxxhdpi/icon_luggage.png"
   inkscape:export-xdpi="360"
   inkscape:export-ydpi="360">
  <metadata
     id="metadata12">
    <rdf:RDF>
      <cc:Work
         rdf:about="">
        <dc:format>image/svg+xml</dc:format>
        <dc:type
           rdf:resource="http://purl.org/dc/dcmitype/StillImage" />
        <dc:title></dc:title>
      </cc:Work>
    </rdf:RDF>
  </metadata>
  <defs
     id="defs10" />
  <sodipodi:namedview
     pagecolor="#ffffff"
     bordercolor="#666666"
     borderopacity="1"
     objecttolerance="10"
     gridtolerance="10"
     guidetolerance="10"
     inkscape:pageopacity="0"
     inkscape:pageshadow="2"
     inkscape:window-width="1375"
     inkscape:window-height="876"
     id="namedview8"
     showgrid="false"
     inkscape:zoom="9.8333333"
     inkscape:cx="29.117845"
     inkscape:cy="24"
     inkscape:window-x="65"
     inkscape:window-y="24"
     inkscape:window-maximized="1"
     inkscape:current-layer="svg2" />
  <path
     d="M0 0h24v24H0zm0 0h24v24H0z"
     fill="none"
     id="path4" />
  <path
     style="fill:#536dfe;fill-opacity:1"
     d="M 2.205078,2.9853515 0.828125,4.3398437 3.06543,6.614258 C 2.686893,6.8650935 2.4375,7.293283 2.4375,7.783203 l 0,9.474609 c 0,0.77761 0.626688,1.403321 1.404297,1.403321 l 11.078125,0 3.382812,3.438476 1.37793,-1.355469 L 2.205078,2.9853515 Z m 8.712891,0.3535157 c -1.377013,0 -2.485352,1.1083369 -2.485352,2.4853518 0,0.191196 0.022,0.377067 0.0625,0.555664 l -0.526367,0 12.083984,12.28125 0.105469,0 c 0.777608,0 1.404297,-0.625711 1.404297,-1.403321 l 0,-9.474609 c 0,-0.777608 -0.626689,-1.40332 -1.404297,-1.40332 l -4.65332,0 c 0.04049,-0.178597 0.0625,-0.3644675 0.0625,-0.555664 0,-1.3770149 -1.108337,-2.4853518 -2.485352,-2.4853518 l -2.164062,0 z m -0.40918,2.1630858 2.982422,0 0,0.87793 -2.982422,0 0,-0.87793 z"
     id="rect4224"
     inkscape:connector-curvature="0" />
</svg>
