<?xml version="1.0" encoding="UTF-8" standalone="no"?>
<svg
   xmlns:dc="http://purl.org/dc/elements/1.1/"
   xmlns:cc="http://creativecommons.org/ns#"
   xmlns:rdf="http://www.w3.org/1999/02/22-rdf-syntax-ns#"
   xmlns:svg="http://www.w3.org/2000/svg"
   xmlns="http://www.w3.org/2000/svg"
   xmlns:xlink="http://www.w3.org/1999/xlink"
   xmlns:sodipodi="http://sodipodi.sourceforge.net/DTD/sodipodi-0.dtd"
   xmlns:inkscape="http://www.inkscape.org/namespaces/inkscape"
   fill="#000000"
   height="48"
   viewBox="0 0 24 24"
   width="48"
   id="svg2"
   version="1.1"
   inkscape:version="0.91 r13725"
   sodipodi:docname="icon_cash.svg"
   inkscape:export-filename="/home/nessa/Proyectos/icon-translator-app/Resources/mdpi/icon_cash.png"
   inkscape:export-xdpi="90"
   inkscape:export-ydpi="90">
  <metadata
     id="metadata14">
    <rdf:RDF>
      <cc:Work
         rdf:about="">
        <dc:format>image/svg+xml</dc:format>
        <dc:type
           rdf:resource="http://purl.org/dc/dcmitype/StillImage" />
        <dc:title></dc:title>
      </cc:Work>
    </rdf:RDF>
  </metadata>
  <sodipodi:namedview
     pagecolor="#ffffff"
     bordercolor="#666666"
     borderopacity="1"
     objecttolerance="10"
     gridtolerance="10"
     guidetolerance="10"
     inkscape:pageopacity="0"
     inkscape:pageshadow="2"
     inkscape:window-width="1375"
     inkscape:window-height="876"
     id="namedview12"
     showgrid="false"
     inkscape:zoom="6.9532167"
     inkscape:cx="23.186441"
     inkscape:cy="18.247267"
     inkscape:window-x="65"
     inkscape:window-y="24"
     inkscape:window-maximized="1"
     inkscape:current-layer="svg2" />
  <defs
     id="defs4">
    <path
       d="M0 0h24v24H0z"
       id="a" />
  </defs>
  <clipPath
     id="b">
    <use
       overflow="visible"
       xlink:href="#a"
       id="use8" />
  </clipPath>
  <g
     id="g4360"
     transform="matrix(0.23048639,0,0,0.23048639,26.742531,19.294554)">
    <path
       inkscape:connector-curvature="0"
       id="rect4335"
       d="m -102.74932,-69.398607 c -4.95596,0 -8.94531,3.990329 -8.94531,8.946293 l 0,9.608398 c 0,4.955964 3.98935,8.945313 8.94531,8.945313 l 1.47656,0 0,-14.855469 74.619142,0 0,14.855469 1.477539,0 c 4.955964,0 8.945313,-3.989349 8.945313,-8.945313 l 0,-9.608398 c 0,-4.955964 -3.989349,-8.946293 -8.945313,-8.946293 l -77.573241,0 z"
       style="fill:#536dfe;fill-opacity:1" />
    <path
       inkscape:connector-curvature="0"
       id="rect4340"
       d="m -93.454398,-50.220705 0,49.40918155 c 0,3.83011835 3.083945,6.91308595 6.914065,6.91308595 l 45.155272,0 c 3.830119,0 6.914063,-3.0829676 6.914063,-6.91308595 l 0,-49.40918155 -4.067383,0 0,48.0048847 c 0,2.23014245 -1.796225,4.0253906 -4.026367,4.0253906 l -27.2959,0 0,-52.0302753 -13.017575,0 0,52.0302753 -2.482425,0 c -2.23014,0 -4.02539,-1.79524815 -4.02539,-4.0253906 l 0,-48.0048847 -4.06836,0 z"
       style="fill:#536dfe;fill-opacity:1" />
    <circle
       r="8"
       cy="-26.033897"
       cx="-51.796608"
       id="path4348"
       style="fill:#536dfe;fill-opacity:1" />
    <circle
       style="fill:#536dfe;fill-opacity:1"
       id="circle4350"
       cx="-51.796608"
       cy="-15.033897"
       r="8" />
  </g>
</svg>
