<?xml version="1.0" encoding="UTF-8" standalone="no"?>
<svg
   xmlns:dc="http://purl.org/dc/elements/1.1/"
   xmlns:cc="http://creativecommons.org/ns#"
   xmlns:rdf="http://www.w3.org/1999/02/22-rdf-syntax-ns#"
   xmlns:svg="http://www.w3.org/2000/svg"
   xmlns="http://www.w3.org/2000/svg"
   xmlns:sodipodi="http://sodipodi.sourceforge.net/DTD/sodipodi-0.dtd"
   xmlns:inkscape="http://www.inkscape.org/namespaces/inkscape"
   fill="#000000"
   height="48"
   viewBox="0 0 24 24"
   width="48"
   id="svg2"
   version="1.1"
   inkscape:version="0.91 r13725"
   sodipodi:docname="icon_drink.svg"
   inkscape:export-filename="/home/nessa/Proyectos/icon-translator-app/Resources/drawable-xxxhdpi/icon_drink.png"
   inkscape:export-xdpi="360"
   inkscape:export-ydpi="360">
  <metadata
     id="metadata12">
    <rdf:RDF>
      <cc:Work
         rdf:about="">
        <dc:format>image/svg+xml</dc:format>
        <dc:type
           rdf:resource="http://purl.org/dc/dcmitype/StillImage" />
        <dc:title></dc:title>
      </cc:Work>
    </rdf:RDF>
  </metadata>
  <defs
     id="defs10" />
  <sodipodi:namedview
     pagecolor="#ffffff"
     bordercolor="#666666"
     borderopacity="1"
     objecttolerance="10"
     gridtolerance="10"
     guidetolerance="10"
     inkscape:pageopacity="0"
     inkscape:pageshadow="2"
     inkscape:window-width="1375"
     inkscape:window-height="876"
     id="namedview8"
     showgrid="false"
     inkscape:zoom="6.9532167"
     inkscape:cx="39.428302"
     inkscape:cy="25.030358"
     inkscape:window-x="65"
     inkscape:window-y="24"
     inkscape:window-maximized="1"
     inkscape:current-layer="svg2"
     showguides="false" />
  <path
     d="M0 0h24v24H0z"
     fill="none"
     id="path6" />
  <g
     id="g4502"
     transform="matrix(0.53914748,0,0,0.53914748,-21.571779,26.108921)">
    <path
       transform="scale(0.5,0.5)"
       id="rect4352"
       d="m 102.91602,-67.119141 0,20.871094 0,2.722656 0,23.46875 c 0,3.224324 2.59402,5.820313 5.81836,5.820313 l 30.25976,0 c 3.22432,0 5.82031,-2.595989 5.82031,-5.820313 l 0,-8.417968 7.28321,0 c 1.9366,0 3.49609,-1.559486 3.49609,-3.496094 l 0,-24.126953 c 0,-1.936608 -1.55949,-3.496094 -3.49609,-3.496094 l -7.28321,0 0,-7.525391 -41.89843,0 z m 9,12.373047 c 1.662,0 3,1.338 3,3 l 0,28 c 0,1.662 -1.338,3 -3,3 -1.662,0 -3,-1.338 -3,-3 l 0,-28 c 0,-1.662 1.338,-3 3,-3 z m 11.94921,0 c 1.662,0 3,1.338 3,3 l 0,28 c 0,1.662 -1.338,3 -3,3 -1.662,0 -3,-1.338 -3,-3 l 0,-28 c 0,-1.662 1.338,-3 3,-3 z m 11.94922,0 c 1.662,0 3,1.338 3,3 l 0,28 c 0,1.662 -1.338,3 -3,3 -1.662,0 -3,-1.338 -3,-3 l 0,-28 c 0,-1.662 1.338,-3 3,-3 z m 9,2.06836 1.15039,0 c 1.84057,0 3.32422,1.481701 3.32422,3.322265 l 0,12.066407 c 0,1.840563 -1.48365,3.322265 -3.32422,3.322265 l -1.15039,0 0,-9.558594 0,-2.722656 0,-6.429687 z"
       style="fill:#536dfe;fill-opacity:1"
       inkscape:connector-curvature="0" />
    <path
       id="path4387"
       transform="scale(0.5,0.5)"
       d="m 114.51367,-90.439453 a 11.783806,12.021863 0 0 0 -11.59961,9.978515 5.6035748,5.7167783 0 0 0 -2.01562,4.38086 5.6035748,5.7167783 0 0 0 1.80273,4.189453 l 41.66992,0 a 9.1805162,9.3659821 0 0 0 3.87305,-7.634766 9.1805162,9.3659821 0 0 0 -9.18164,-9.365234 9.1805162,9.3659821 0 0 0 -7.50977,3.988281 9.1805162,9.3659821 0 0 0 -4.18554,-1.039062 9.1805162,9.3659821 0 0 0 -3.23438,0.605468 11.783806,12.021863 0 0 0 -9.61914,-5.103515 z"
       style="opacity:0.931;fill:#536dfe;fill-opacity:1"
       inkscape:connector-curvature="0" />
  </g>
</svg>
