<?xml version="1.0" encoding="UTF-8" standalone="no"?>
<svg
   xmlns:dc="http://purl.org/dc/elements/1.1/"
   xmlns:cc="http://creativecommons.org/ns#"
   xmlns:rdf="http://www.w3.org/1999/02/22-rdf-syntax-ns#"
   xmlns:svg="http://www.w3.org/2000/svg"
   xmlns="http://www.w3.org/2000/svg"
   xmlns:sodipodi="http://sodipodi.sourceforge.net/DTD/sodipodi-0.dtd"
   xmlns:inkscape="http://www.inkscape.org/namespaces/inkscape"
   fill="#000000"
   height="48"
   viewBox="0 0 24 24"
   width="48"
   id="svg2"
   version="1.1"
   inkscape:version="0.91 r13725"
   sodipodi:docname="icon_photo.svg"
   inkscape:export-filename="/home/nessa/Proyectos/icon-translator-app/Resources/drawable-xxxhdpi/icon_photo.png"
   inkscape:export-xdpi="360"
   inkscape:export-ydpi="360">
  <metadata
     id="metadata12">
    <rdf:RDF>
      <cc:Work
         rdf:about="">
        <dc:format>image/svg+xml</dc:format>
        <dc:type
           rdf:resource="http://purl.org/dc/dcmitype/StillImage" />
        <dc:title></dc:title>
      </cc:Work>
    </rdf:RDF>
  </metadata>
  <defs
     id="defs10" />
  <sodipodi:namedview
     pagecolor="#ffffff"
     bordercolor="#666666"
     borderopacity="1"
     objecttolerance="10"
     gridtolerance="10"
     guidetolerance="10"
     inkscape:pageopacity="0"
     inkscape:pageshadow="2"
     inkscape:window-width="1375"
     inkscape:window-height="876"
     id="namedview8"
     showgrid="false"
     inkscape:zoom="9.8333333"
     inkscape:cx="24"
     inkscape:cy="28.067797"
     inkscape:window-x="65"
     inkscape:window-y="24"
     inkscape:window-maximized="1"
     inkscape:current-layer="g4901" />
  <path
     d="M0 0h24v24H0z"
     fill="none"
     id="path4" />
  <g
     style="fill:#000000"
     id="g4884"
     transform="translate(-4.474576,-2.4915257)">
    <path
       id="path4874"
       d="M 0,0 24,0 24,24 0,24 Z"
       inkscape:connector-curvature="0"
       style="fill:none" />
    <g
       id="g4901">
      <path
         transform="matrix(0.5,0,0,0.5,4.474576,2.4915257)"
         id="path6"
         d="M 6 10 C 3.8 10 2 11.8 2 14 L 2 34 C 2 36.2 3.8 38 6 38 L 42 38 C 44.2 38 46 36.2 46 34 L 46 14 C 46 11.8 44.2 10 42 10 L 6 10 z M 10 14 L 38 14 L 38 34 L 10 34 L 10 14 z "
         style="fill:#536dfe;fill-opacity:1" />
      <path
         sodipodi:nodetypes="sssssssccss"
         inkscape:connector-curvature="0"
         id="path4876"
         d="m 18.83271,11.203307 c -1.01161,0 -1.832627,0.821017 -1.832627,1.832627 0,1.011611 0.821017,1.832628 1.832627,1.832628 1.01161,0 1.825468,-0.821017 1.825468,-1.832628 0,-1.01161 -0.813858,-1.832627 -1.825468,-1.832627 z m 0,4.131356 c -1.341483,0 -4.03178,0.674407 -4.03178,2.01589 l 0,1.649365 8.06356,0 0,-1.649365 c 0,-1.341483 -2.690297,-2.01589 -4.03178,-2.01589 z"
         style="fill:#536dfe;fill-opacity:1" />
    </g>
  </g>
</svg>
