<?xml version="1.0" encoding="UTF-8" standalone="no"?>
<svg
   xmlns:dc="http://purl.org/dc/elements/1.1/"
   xmlns:cc="http://creativecommons.org/ns#"
   xmlns:rdf="http://www.w3.org/1999/02/22-rdf-syntax-ns#"
   xmlns:svg="http://www.w3.org/2000/svg"
   xmlns="http://www.w3.org/2000/svg"
   xmlns:sodipodi="http://sodipodi.sourceforge.net/DTD/sodipodi-0.dtd"
   xmlns:inkscape="http://www.inkscape.org/namespaces/inkscape"
   fill="#000000"
   height="48"
   viewBox="0 0 24 24"
   width="48"
   id="svg2"
   version="1.1"
   inkscape:version="0.91 r13725"
   sodipodi:docname="icon_restaurant.svg"
   inkscape:export-filename="/home/nessa/Proyectos/icon-translator-app/Resources/drawable-xxxhdpi/icon_restaurant.png"
   inkscape:export-xdpi="360"
   inkscape:export-ydpi="360">
  <metadata
     id="metadata12">
    <rdf:RDF>
      <cc:Work
         rdf:about="">
        <dc:format>image/svg+xml</dc:format>
        <dc:type
           rdf:resource="http://purl.org/dc/dcmitype/StillImage" />
        <dc:title></dc:title>
      </cc:Work>
    </rdf:RDF>
  </metadata>
  <defs
     id="defs10" />
  <sodipodi:namedview
     pagecolor="#ffffff"
     bordercolor="#666666"
     borderopacity="1"
     objecttolerance="10"
     gridtolerance="10"
     guidetolerance="10"
     inkscape:pageopacity="0"
     inkscape:pageshadow="2"
     inkscape:window-width="1375"
     inkscape:window-height="876"
     id="namedview8"
     showgrid="false"
     inkscape:zoom="4.9166667"
     inkscape:cx="23.79661"
     inkscape:cy="40.271186"
     inkscape:window-x="65"
     inkscape:window-y="24"
     inkscape:window-maximized="1"
     inkscape:current-layer="svg2" />
  <path
     d="M0 0h24v24H0z"
     fill="none"
     id="path6" />
  <g
     id="g4206"
     transform="matrix(0.96340069,0,0,0.96340069,1.195515,0.688487)">
    <path
       inkscape:connector-curvature="0"
       style="fill:#536dfe;fill-opacity:1"
       id="path4"
       d="m 9.8305083,9.828814 -1.684746,0 0,-5.8966106 -1.6847453,0 0,5.8966106 -1.6847458,0 0,-5.8966106 -1.6847458,0 0,5.8966106 c 0,1.78583 1.398339,3.234711 3.1588983,3.34422 l 0,7.606627 2.1059326,0 0,-7.606627 c 1.7605587,-0.109509 3.1588977,-1.55839 3.1588977,-3.34422 l 0,-5.8966106 -1.6847457,0 0,5.8966106 z m 4.2118647,-2.5271191 0,6.7389831 2.105932,0 0,6.738983 2.105932,0 0,-16.8474576 c -2.324949,0 -4.211864,1.8869152 -4.211864,3.3694915 z" />
    <g
       transform="matrix(0.40617042,0,0,0.40617042,16.988534,-0.6046863)"
       id="g4202"
       style="fill:#000000">
      <path
         style="fill:#536dfe;fill-opacity:1"
         inkscape:connector-curvature="0"
         d="M 9,11.3 12.71,14 11.29,9.64 15,7 10.45,7 9,2.5 7.55,7 3,7 6.71,9.64 5.29,14 Z"
         id="path4192" />
      <path
         style="fill:none"
         inkscape:connector-curvature="0"
         d="M 0,0 18,0 18,18 0,18 Z"
         id="path4194" />
    </g>
  </g>
</svg>
